<?xml version="1.0" encoding="UTF-8" standalone="no"?>
<!DOCTYPE svg PUBLIC "-//W3C//DTD SVG 1.1//EN"
 "http://www.w3.org/Graphics/SVG/1.1/DTD/svg11.dtd">
<!-- Generated by graphviz version 14.1.2 (20260126.1125)
 -->
<!-- Title: snakemake_dag Pages: 1 -->
<svg width="1201pt" height="290pt"
 viewBox="0.00 0.00 1201.00 290.00" xmlns="http://www.w3.org/2000/svg" xmlns:xlink="http://www.w3.org/1999/xlink">
<g id="graph0" class="graph" transform="scale(1 1) rotate(0) translate(4 286)">
<title>snakemake_dag</title>
<polygon fill="white" stroke="none" points="-4,4 -4,-286 1197.25,-286 1197.25,4 -4,4"/>
<!-- 0 -->
<g id="node1" class="node">
<title>0</title>
<path fill="none" stroke="#bed856" stroke-width="2" d="M1181.25,-182C1181.25,-182 1151.25,-182 1151.25,-182 1145.25,-182 1139.25,-176 1139.25,-170 1139.25,-170 1139.25,-158 1139.25,-158 1139.25,-152 1145.25,-146 1151.25,-146 1151.25,-146 1181.25,-146 1181.25,-146 1187.25,-146 1193.25,-152 1193.25,-158 1193.25,-158 1193.25,-170 1193.25,-170 1193.25,-176 1187.25,-182 1181.25,-182"/>
<text xml:space="preserve" text-anchor="middle" x="1166.25" y="-160.88" font-family="sans" font-size="10.00">all</text>
</g>
<!-- 1 -->
<g id="node2" class="node">
<title>1</title>
<path fill="none" stroke="#9fd856" stroke-width="2" d="M592.5,-282C592.5,-282 562.5,-282 562.5,-282 556.5,-282 550.5,-276 550.5,-270 550.5,-270 550.5,-258 550.5,-258 550.5,-252 556.5,-246 562.5,-246 562.5,-246 592.5,-246 592.5,-246 598.5,-246 604.5,-252 604.5,-258 604.5,-258 604.5,-270 604.5,-270 604.5,-276 598.5,-282 592.5,-282"/>
<text xml:space="preserve" text-anchor="middle" x="577.5" y="-260.88" font-family="sans" font-size="10.00">raw_qc</text>
</g>
<!-- 1&#45;&gt;0 -->
<g id="edge2" class="edge">
<title>1&#45;&gt;0</title>
<path fill="none" stroke="grey" stroke-width="2" d="M605.3,-262.59C651.29,-260.29 748.17,-256 830.12,-256 830.12,-256 830.12,-256 944.5,-256 1018.21,-256 1037.05,-240.42 1103.25,-208 1113.11,-203.17 1123.11,-196.84 1132.11,-190.48"/>
<polygon fill="grey" stroke="grey" stroke-width="2" points="1134.11,-193.36 1140.09,-184.61 1129.96,-187.72 1134.11,-193.36"/>
</g>
<!-- 16 -->
<g id="node17" class="node">
<title>16</title>
<path fill="none" stroke="#56d0d8" stroke-width="2" d="M723.62,-182C723.62,-182 693.62,-182 693.62,-182 687.62,-182 681.62,-176 681.62,-170 681.62,-170 681.62,-158 681.62,-158 681.62,-152 687.62,-146 693.62,-146 693.62,-146 723.62,-146 723.62,-146 729.62,-146 735.62,-152 735.62,-158 735.62,-158 735.62,-170 735.62,-170 735.62,-176 729.62,-182 723.62,-182"/>
<text xml:space="preserve" text-anchor="middle" x="708.62" y="-160.88" font-family="sans" font-size="10.00">multiqc</text>
</g>
<!-- 1&#45;&gt;16 -->
<g id="edge21" class="edge">
<title>1&#45;&gt;16</title>
<path fill="none" stroke="grey" stroke-width="2" d="M605.25,-250.11C612.19,-246.16 619.53,-241.65 626,-237 644.87,-223.44 664.33,-206.18 679.51,-191.86"/>
<polygon fill="grey" stroke="grey" stroke-width="2" points="681.84,-194.47 686.64,-185.03 676.99,-189.42 681.84,-194.47"/>
</g>
<!-- 2 -->
<g id="node3" class="node">
<title>2</title>
<path fill="none" stroke="#68d856" stroke-width="2" d="M602.75,-228C602.75,-228 552.25,-228 552.25,-228 546.25,-228 540.25,-222 540.25,-216 540.25,-216 540.25,-204 540.25,-204 540.25,-198 546.25,-192 552.25,-192 552.25,-192 602.75,-192 602.75,-192 608.75,-192 614.75,-198 614.75,-204 614.75,-204 614.75,-216 614.75,-216 614.75,-222 608.75,-228 602.75,-228"/>
<text xml:space="preserve" text-anchor="middle" x="577.5" y="-206.88" font-family="sans" font-size="10.00">trimmed_qc</text>
</g>
<!-- 2&#45;&gt;0 -->
<g id="edge3" class="edge">
<title>2&#45;&gt;0</title>
<path fill="none" stroke="grey" stroke-width="2" d="M615.59,-210C664.67,-210 753.89,-210 830.12,-210 830.12,-210 830.12,-210 944.5,-210 1009.21,-210 1082.39,-190.82 1126.12,-177.23"/>
<polygon fill="grey" stroke="grey" stroke-width="2" points="1127.09,-180.6 1135.55,-174.23 1124.96,-173.93 1127.09,-180.6"/>
</g>
<!-- 2&#45;&gt;16 -->
<g id="edge23" class="edge">
<title>2&#45;&gt;16</title>
<path fill="none" stroke="grey" stroke-width="2" d="M615.5,-196.82C632.13,-190.89 651.76,-183.9 668.62,-177.9"/>
<polygon fill="grey" stroke="grey" stroke-width="2" points="669.78,-181.2 678.02,-174.55 667.43,-174.6 669.78,-181.2"/>
</g>
<!-- 3 -->
<g id="node4" class="node">
<title>3</title>
<path fill="none" stroke="#88d856" stroke-width="2" d="M42,-182C42,-182 12,-182 12,-182 6,-182 0,-176 0,-170 0,-170 0,-158 0,-158 0,-152 6,-146 12,-146 12,-146 42,-146 42,-146 48,-146 54,-152 54,-158 54,-158 54,-170 54,-170 54,-176 48,-182 42,-182"/>
<text xml:space="preserve" text-anchor="middle" x="27" y="-160.88" font-family="sans" font-size="10.00">trim</text>
</g>
<!-- 3&#45;&gt;2 -->
<g id="edge6" class="edge">
<title>3&#45;&gt;2</title>
<path fill="none" stroke="grey" stroke-width="2" d="M54.97,-173.74C91.8,-186.15 160.12,-206 220.25,-206 220.25,-206 220.25,-206 338.38,-206 403.38,-206 478.35,-207.51 526.53,-208.67"/>
<polygon fill="grey" stroke="grey" stroke-width="2" points="526.27,-212.17 536.36,-208.92 526.45,-205.17 526.27,-212.17"/>
</g>
<!-- 7 -->
<g id="node8" class="node">
<title>7</title>
<path fill="none" stroke="#d8d356" stroke-width="2" d="M143.5,-121C143.5,-121 102,-121 102,-121 96,-121 90,-115 90,-109 90,-109 90,-97 90,-97 90,-91 96,-85 102,-85 102,-85 143.5,-85 143.5,-85 149.5,-85 155.5,-91 155.5,-97 155.5,-97 155.5,-109 155.5,-109 155.5,-115 149.5,-121 143.5,-121"/>
<text xml:space="preserve" text-anchor="middle" x="122.75" y="-99.88" font-family="sans" font-size="10.00">align_bwa</text>
</g>
<!-- 3&#45;&gt;7 -->
<g id="edge11" class="edge">
<title>3&#45;&gt;7</title>
<path fill="none" stroke="grey" stroke-width="2" d="M54.86,-146.52C63.25,-141.06 72.69,-134.92 81.77,-129.01"/>
<polygon fill="grey" stroke="grey" stroke-width="2" points="83.57,-132.02 90.05,-123.63 79.76,-126.15 83.57,-132.02"/>
</g>
<!-- 3&#45;&gt;16 -->
<g id="edge22" class="edge">
<title>3&#45;&gt;16</title>
<path fill="none" stroke="grey" stroke-width="2" d="M54.75,-164C91.88,-164 161.17,-164 220.25,-164 220.25,-164 220.25,-164 459.38,-164 533.04,-164 619.01,-164 668.01,-164"/>
<polygon fill="grey" stroke="grey" stroke-width="2" points="667.78,-167.5 677.78,-164 667.78,-160.5 667.78,-167.5"/>
</g>
<!-- 4 -->
<g id="node5" class="node">
<title>4</title>
<path fill="none" stroke="#5673d8" stroke-width="2" d="M597.88,-98C597.88,-98 557.12,-98 557.12,-98 551.12,-98 545.12,-92 545.12,-86 545.12,-86 545.12,-74 545.12,-74 545.12,-68 551.12,-62 557.12,-62 557.12,-62 597.88,-62 597.88,-62 603.88,-62 609.88,-68 609.88,-74 609.88,-74 609.88,-86 609.88,-86 609.88,-92 603.88,-98 597.88,-98"/>
<text xml:space="preserve" text-anchor="middle" x="577.5" y="-76.88" font-family="sans" font-size="10.00">mosdepth</text>
</g>
<!-- 4&#45;&gt;0 -->
<g id="edge5" class="edge">
<title>4&#45;&gt;0</title>
<path fill="none" stroke="grey" stroke-width="2" d="M610.84,-88.06C658.51,-99.21 750.6,-118 830.12,-118 830.12,-118 830.12,-118 944.5,-118 1009.21,-118 1082.39,-137.18 1126.12,-150.77"/>
<polygon fill="grey" stroke="grey" stroke-width="2" points="1124.96,-154.07 1135.55,-153.77 1127.09,-147.4 1124.96,-154.07"/>
</g>
<!-- 4&#45;&gt;16 -->
<g id="edge25" class="edge">
<title>4&#45;&gt;16</title>
<path fill="none" stroke="grey" stroke-width="2" d="M607.48,-98.85C625.96,-110.88 650.11,-126.58 670.06,-139.56"/>
<polygon fill="grey" stroke="grey" stroke-width="2" points="668.12,-142.47 678.41,-144.99 671.93,-136.61 668.12,-142.47"/>
</g>
<!-- 5 -->
<g id="node6" class="node">
<title>5</title>
<path fill="none" stroke="#56b1d8" stroke-width="2" d="M481,-79C481,-79 435.75,-79 435.75,-79 429.75,-79 423.75,-73 423.75,-67 423.75,-67 423.75,-55 423.75,-55 423.75,-49 429.75,-43 435.75,-43 435.75,-43 481,-43 481,-43 487,-43 493,-49 493,-55 493,-55 493,-67 493,-67 493,-73 487,-79 481,-79"/>
<text xml:space="preserve" text-anchor="middle" x="458.38" y="-57.88" font-family="sans" font-size="10.00">apply_bqsr</text>
</g>
<!-- 5&#45;&gt;4 -->
<g id="edge7" class="edge">
<title>5&#45;&gt;4</title>
<path fill="none" stroke="grey" stroke-width="2" d="M493.88,-66.6C505.7,-68.52 519.1,-70.69 531.62,-72.72"/>
<polygon fill="grey" stroke="grey" stroke-width="2" points="530.82,-76.14 541.26,-74.28 531.94,-69.23 530.82,-76.14"/>
</g>
<!-- 13 -->
<g id="node14" class="node">
<title>13</title>
<path fill="none" stroke="#56d8a2" stroke-width="2" d="M614,-44C614,-44 541,-44 541,-44 535,-44 529,-38 529,-32 529,-32 529,-20 529,-20 529,-14 535,-8 541,-8 541,-8 614,-8 614,-8 620,-8 626,-14 626,-20 626,-20 626,-32 626,-32 626,-38 620,-44 614,-44"/>
<text xml:space="preserve" text-anchor="middle" x="577.5" y="-22.88" font-family="sans" font-size="10.00">haplotype_caller</text>
</g>
<!-- 5&#45;&gt;13 -->
<g id="edge18" class="edge">
<title>5&#45;&gt;13</title>
<path fill="none" stroke="grey" stroke-width="2" d="M493.88,-50.69C500.88,-48.6 508.44,-46.34 516.04,-44.07"/>
<polygon fill="grey" stroke="grey" stroke-width="2" points="516.87,-47.47 525.45,-41.25 514.87,-40.76 516.87,-47.47"/>
</g>
<!-- 6 -->
<g id="node7" class="node">
<title>6</title>
<path fill="none" stroke="#56d863" stroke-width="2" d="M239,-113C239,-113 203.5,-113 203.5,-113 197.5,-113 191.5,-107 191.5,-101 191.5,-101 191.5,-89 191.5,-89 191.5,-83 197.5,-77 203.5,-77 203.5,-77 239,-77 239,-77 245,-77 251,-83 251,-89 251,-89 251,-101 251,-101 251,-107 245,-113 239,-113"/>
<text xml:space="preserve" text-anchor="middle" x="221.25" y="-91.88" font-family="sans" font-size="10.00">markdup</text>
</g>
<!-- 6&#45;&gt;5 -->
<g id="edge9" class="edge">
<title>6&#45;&gt;5</title>
<path fill="none" stroke="grey" stroke-width="2" d="M251.55,-90.76C291.39,-85 363.08,-74.64 410.45,-67.79"/>
<polygon fill="grey" stroke="grey" stroke-width="2" points="410.73,-71.28 420.13,-66.39 409.73,-64.35 410.73,-71.28"/>
</g>
<!-- 8 -->
<g id="node9" class="node">
<title>8</title>
<path fill="none" stroke="#d85656" stroke-width="2" d="M375.75,-60C375.75,-60 299,-60 299,-60 293,-60 287,-54 287,-48 287,-48 287,-36 287,-36 287,-30 293,-24 299,-24 299,-24 375.75,-24 375.75,-24 381.75,-24 387.75,-30 387.75,-36 387.75,-36 387.75,-48 387.75,-48 387.75,-54 381.75,-60 375.75,-60"/>
<text xml:space="preserve" text-anchor="middle" x="337.38" y="-38.88" font-family="sans" font-size="10.00">base_recalibrator</text>
</g>
<!-- 6&#45;&gt;8 -->
<g id="edge12" class="edge">
<title>6&#45;&gt;8</title>
<path fill="none" stroke="grey" stroke-width="2" d="M251.94,-81.21C261.73,-76.66 272.94,-71.46 283.92,-66.36"/>
<polygon fill="grey" stroke="grey" stroke-width="2" points="285.33,-69.57 292.92,-62.18 282.38,-63.22 285.33,-69.57"/>
</g>
<!-- 6&#45;&gt;16 -->
<g id="edge24" class="edge">
<title>6&#45;&gt;16</title>
<path fill="none" stroke="grey" stroke-width="2" d="M251.93,-98.69C318.81,-107.07 486.33,-128.52 626,-150 639.75,-152.11 654.76,-154.63 668.12,-156.94"/>
<polygon fill="grey" stroke="grey" stroke-width="2" points="667.39,-160.37 677.84,-158.64 668.6,-153.47 667.39,-160.37"/>
</g>
<!-- 7&#45;&gt;6 -->
<g id="edge10" class="edge">
<title>7&#45;&gt;6</title>
<path fill="none" stroke="grey" stroke-width="2" d="M156.42,-100.29C163.24,-99.73 170.52,-99.12 177.63,-98.53"/>
<polygon fill="grey" stroke="grey" stroke-width="2" points="177.84,-102.03 187.52,-97.71 177.26,-95.05 177.84,-102.03"/>
</g>
<!-- 8&#45;&gt;5 -->
<g id="edge8" class="edge">
<title>8&#45;&gt;5</title>
<path fill="none" stroke="grey" stroke-width="2" d="M388.5,-50C395.63,-51.14 402.95,-52.31 410.03,-53.44"/>
<polygon fill="grey" stroke="grey" stroke-width="2" points="409.41,-56.89 419.84,-55.01 410.51,-49.97 409.41,-56.89"/>
</g>
<!-- 9 -->
<g id="node10" class="node">
<title>9</title>
<path fill="none" stroke="#d8b456" stroke-width="2" d="M1091.25,-90C1091.25,-90 1028,-90 1028,-90 1022,-90 1016,-84 1016,-78 1016,-78 1016,-66 1016,-66 1016,-60 1022,-54 1028,-54 1028,-54 1091.25,-54 1091.25,-54 1097.25,-54 1103.25,-60 1103.25,-66 1103.25,-66 1103.25,-78 1103.25,-78 1103.25,-84 1097.25,-90 1091.25,-90"/>
<text xml:space="preserve" text-anchor="middle" x="1059.62" y="-68.88" font-family="sans" font-size="10.00">merge_filtered</text>
</g>
<!-- 9&#45;&gt;0 -->
<g id="edge1" class="edge">
<title>9&#45;&gt;0</title>
<path fill="none" stroke="grey" stroke-width="2" d="M1086.73,-90.78C1092.28,-95.01 1098.04,-99.55 1103.25,-104 1115.03,-114.05 1127.4,-125.77 1137.97,-136.16"/>
<polygon fill="grey" stroke="grey" stroke-width="2" points="1135.4,-138.54 1144.95,-143.12 1140.34,-133.58 1135.4,-138.54"/>
</g>
<!-- 10 -->
<g id="node11" class="node">
<title>10</title>
<path fill="none" stroke="#d89556" stroke-width="2" d="M964.62,-36C964.62,-36 922.38,-36 922.38,-36 916.38,-36 910.38,-30 910.38,-24 910.38,-24 910.38,-12 910.38,-12 910.38,-6 916.38,0 922.38,0 922.38,0 964.62,0 964.62,0 970.62,0 976.62,-6 976.62,-12 976.62,-12 976.62,-24 976.62,-24 976.62,-30 970.62,-36 964.62,-36"/>
<text xml:space="preserve" text-anchor="middle" x="943.5" y="-14.88" font-family="sans" font-size="10.00">filter_snps</text>
</g>
<!-- 10&#45;&gt;9 -->
<g id="edge14" class="edge">
<title>10&#45;&gt;9</title>
<path fill="none" stroke="grey" stroke-width="2" d="M977.51,-33.62C986.78,-38.01 997.1,-42.89 1007.17,-47.65"/>
<polygon fill="grey" stroke="grey" stroke-width="2" points="1005.54,-50.76 1016.08,-51.87 1008.54,-44.43 1005.54,-50.76"/>
</g>
<!-- 11 -->
<g id="node12" class="node">
<title>11</title>
<path fill="none" stroke="#56d8c1" stroke-width="2" d="M855.62,-36C855.62,-36 806.62,-36 806.62,-36 800.62,-36 794.62,-30 794.62,-24 794.62,-24 794.62,-12 794.62,-12 794.62,-6 800.62,0 806.62,0 806.62,0 855.62,0 855.62,0 861.62,0 867.62,-6 867.62,-12 867.62,-12 867.62,-24 867.62,-24 867.62,-30 861.62,-36 855.62,-36"/>
<text xml:space="preserve" text-anchor="middle" x="831.12" y="-14.88" font-family="sans" font-size="10.00">select_snps</text>
</g>
<!-- 11&#45;&gt;10 -->
<g id="edge15" class="edge">
<title>11&#45;&gt;10</title>
<path fill="none" stroke="grey" stroke-width="2" d="M868.57,-18C877.53,-18 887.25,-18 896.59,-18"/>
<polygon fill="grey" stroke="grey" stroke-width="2" points="896.42,-21.5 906.42,-18 896.42,-14.5 896.42,-21.5"/>
</g>
<!-- 12 -->
<g id="node13" class="node">
<title>12</title>
<path fill="none" stroke="#56d882" stroke-width="2" d="M743.25,-44C743.25,-44 674,-44 674,-44 668,-44 662,-38 662,-32 662,-32 662,-20 662,-20 662,-14 668,-8 674,-8 674,-8 743.25,-8 743.25,-8 749.25,-8 755.25,-14 755.25,-20 755.25,-20 755.25,-32 755.25,-32 755.25,-38 749.25,-44 743.25,-44"/>
<text xml:space="preserve" text-anchor="middle" x="708.62" y="-22.88" font-family="sans" font-size="10.00">genotype_gvcfs</text>
</g>
<!-- 12&#45;&gt;11 -->
<g id="edge16" class="edge">
<title>12&#45;&gt;11</title>
<path fill="none" stroke="grey" stroke-width="2" d="M756.21,-22.91C764.29,-22.37 772.71,-21.81 780.85,-21.27"/>
<polygon fill="grey" stroke="grey" stroke-width="2" points="780.98,-24.77 790.73,-20.62 780.52,-17.79 780.98,-24.77"/>
</g>
<!-- 15 -->
<g id="node16" class="node">
<title>15</title>
<path fill="none" stroke="#5692d8" stroke-width="2" d="M859,-90C859,-90 803.25,-90 803.25,-90 797.25,-90 791.25,-84 791.25,-78 791.25,-78 791.25,-66 791.25,-66 791.25,-60 797.25,-54 803.25,-54 803.25,-54 859,-54 859,-54 865,-54 871,-60 871,-66 871,-66 871,-78 871,-78 871,-84 865,-90 859,-90"/>
<text xml:space="preserve" text-anchor="middle" x="831.12" y="-68.88" font-family="sans" font-size="10.00">select_indels</text>
</g>
<!-- 12&#45;&gt;15 -->
<g id="edge20" class="edge">
<title>12&#45;&gt;15</title>
<path fill="none" stroke="grey" stroke-width="2" d="M756.21,-43.78C763.43,-46.54 770.91,-49.4 778.23,-52.19"/>
<polygon fill="grey" stroke="grey" stroke-width="2" points="776.9,-55.43 787.49,-55.72 779.4,-48.89 776.9,-55.43"/>
</g>
<!-- 13&#45;&gt;12 -->
<g id="edge17" class="edge">
<title>13&#45;&gt;12</title>
<path fill="none" stroke="grey" stroke-width="2" d="M626.95,-26C633.84,-26 640.99,-26 648.06,-26"/>
<polygon fill="grey" stroke="grey" stroke-width="2" points="648.02,-29.5 658.02,-26 648.02,-22.5 648.02,-29.5"/>
</g>
<!-- 14 -->
<g id="node15" class="node">
<title>14</title>
<path fill="none" stroke="#d87556" stroke-width="2" d="M968,-90C968,-90 919,-90 919,-90 913,-90 907,-84 907,-78 907,-78 907,-66 907,-66 907,-60 913,-54 919,-54 919,-54 968,-54 968,-54 974,-54 980,-60 980,-66 980,-66 980,-78 980,-78 980,-84 974,-90 968,-90"/>
<text xml:space="preserve" text-anchor="middle" x="943.5" y="-68.88" font-family="sans" font-size="10.00">filter_indels</text>
</g>
<!-- 14&#45;&gt;9 -->
<g id="edge13" class="edge">
<title>14&#45;&gt;9</title>
<path fill="none" stroke="grey" stroke-width="2" d="M980.92,-72C987.77,-72 995.08,-72 1002.37,-72"/>
<polygon fill="grey" stroke="grey" stroke-width="2" points="1002.35,-75.5 1012.35,-72 1002.35,-68.5 1002.35,-75.5"/>
</g>
<!-- 15&#45;&gt;14 -->
<g id="edge19" class="edge">
<title>15&#45;&gt;14</title>
<path fill="none" stroke="grey" stroke-width="2" d="M871.97,-72C878.83,-72 886.04,-72 893.11,-72"/>
<polygon fill="grey" stroke="grey" stroke-width="2" points="892.99,-75.5 902.99,-72 892.99,-68.5 892.99,-75.5"/>
</g>
<!-- 16&#45;&gt;0 -->
<g id="edge4" class="edge">
<title>16&#45;&gt;0</title>
<path fill="none" stroke="grey" stroke-width="2" d="M736.43,-164C813.27,-164 1034.63,-164 1125.55,-164"/>
<polygon fill="grey" stroke="grey" stroke-width="2" points="1125.46,-167.5 1135.46,-164 1125.46,-160.5 1125.46,-167.5"/>
</g>
</g>
</svg>
