<?xml version="1.0" encoding="UTF-8" standalone="no"?>
<!DOCTYPE svg PUBLIC "-//W3C//DTD SVG 1.1//EN"
 "http://www.w3.org/Graphics/SVG/1.1/DTD/svg11.dtd">
<!-- Generated by graphviz version 14.1.2 (20260126.1125)
 -->
<!-- Title: snakemake_dag Pages: 1 -->
<svg width="436pt" height="764pt"
 viewBox="0.00 0.00 436.00 764.00" xmlns="http://www.w3.org/2000/svg" xmlns:xlink="http://www.w3.org/1999/xlink">
<g id="graph0" class="graph" transform="scale(1 1) rotate(0) translate(4 760)">
<title>snakemake_dag</title>
<polygon fill="white" stroke="none" points="-4,4 -4,-760 431.88,-760 431.88,4 -4,4"/>
<!-- 0 -->
<g id="node1" class="node">
<title>0</title>
<path fill="none" stroke="#88d856" stroke-width="2" d="M186,-36C186,-36 156,-36 156,-36 150,-36 144,-30 144,-24 144,-24 144,-12 144,-12 144,-6 150,0 156,0 156,0 186,0 186,0 192,0 198,-6 198,-12 198,-12 198,-24 198,-24 198,-30 192,-36 186,-36"/>
<text xml:space="preserve" text-anchor="middle" x="171" y="-14.88" font-family="sans" font-size="10.00">all</text>
</g>
<!-- 1 -->
<g id="node2" class="node">
<title>1</title>
<path fill="none" stroke="#d85656" stroke-width="2" d="M42,-396C42,-396 12,-396 12,-396 6,-396 0,-390 0,-384 0,-384 0,-372 0,-372 0,-366 6,-360 12,-360 12,-360 42,-360 42,-360 48,-360 54,-366 54,-372 54,-372 54,-384 54,-384 54,-390 48,-396 42,-396"/>
<text xml:space="preserve" text-anchor="middle" x="27" y="-374.88" font-family="sans" font-size="10.00">raw_qc</text>
</g>
<!-- 1&#45;&gt;0 -->
<g id="edge1" class="edge">
<title>1&#45;&gt;0</title>
<path fill="none" stroke="grey" stroke-width="2" d="M31.97,-359.23C39,-332.5 51,-280.25 51,-235 51,-235 51,-235 51,-161 51,-109.52 97.58,-67.07 132.7,-42.37"/>
<polygon fill="grey" stroke="grey" stroke-width="2" points="134.34,-45.49 140.66,-36.99 130.42,-39.69 134.34,-45.49"/>
</g>
<!-- 16 -->
<g id="node17" class="node">
<title>16</title>
<path fill="none" stroke="#56d882" stroke-width="2" d="M186,-324C186,-324 156,-324 156,-324 150,-324 144,-318 144,-312 144,-312 144,-300 144,-300 144,-294 150,-288 156,-288 156,-288 186,-288 186,-288 192,-288 198,-294 198,-300 198,-300 198,-312 198,-312 198,-318 192,-324 186,-324"/>
<text xml:space="preserve" text-anchor="middle" x="171" y="-302.88" font-family="sans" font-size="10.00">multiqc</text>
</g>
<!-- 1&#45;&gt;16 -->
<g id="edge21" class="edge">
<title>1&#45;&gt;16</title>
<path fill="none" stroke="grey" stroke-width="2" d="M54.76,-363.5C76.68,-352.85 107.52,-337.86 131.92,-326"/>
<polygon fill="grey" stroke="grey" stroke-width="2" points="133.13,-329.3 140.6,-321.78 130.07,-323 133.13,-329.3"/>
</g>
<!-- 2 -->
<g id="node3" class="node">
<title>2</title>
<path fill="none" stroke="#9fd856" stroke-width="2" d="M134.25,-396C134.25,-396 83.75,-396 83.75,-396 77.75,-396 71.75,-390 71.75,-384 71.75,-384 71.75,-372 71.75,-372 71.75,-366 77.75,-360 83.75,-360 83.75,-360 134.25,-360 134.25,-360 140.25,-360 146.25,-366 146.25,-372 146.25,-372 146.25,-384 146.25,-384 146.25,-390 140.25,-396 134.25,-396"/>
<text xml:space="preserve" text-anchor="middle" x="109" y="-374.88" font-family="sans" font-size="10.00">trimmed_qc</text>
</g>
<!-- 2&#45;&gt;0 -->
<g id="edge3" class="edge">
<title>2&#45;&gt;0</title>
<path fill="none" stroke="grey" stroke-width="2" d="M109.41,-359.07C110,-332.13 111,-279.63 111,-235 111,-235 111,-235 111,-161 111,-119.08 133.46,-75.3 150.9,-47.63"/>
<polygon fill="grey" stroke="grey" stroke-width="2" points="153.77,-49.63 156.32,-39.34 147.92,-45.79 153.77,-49.63"/>
</g>
<!-- 2&#45;&gt;16 -->
<g id="edge25" class="edge">
<title>2&#45;&gt;16</title>
<path fill="none" stroke="grey" stroke-width="2" d="M124.65,-359.34C131.28,-351.85 139.16,-342.95 146.53,-334.63"/>
<polygon fill="grey" stroke="grey" stroke-width="2" points="149.13,-336.97 153.14,-327.17 143.89,-332.33 149.13,-336.97"/>
</g>
<!-- 3 -->
<g id="node4" class="node">
<title>3</title>
<path fill="none" stroke="#d8d356" stroke-width="2" d="M189,-756C189,-756 159,-756 159,-756 153,-756 147,-750 147,-744 147,-744 147,-732 147,-732 147,-726 153,-720 159,-720 159,-720 189,-720 189,-720 195,-720 201,-726 201,-732 201,-732 201,-744 201,-744 201,-750 195,-756 189,-756"/>
<text xml:space="preserve" text-anchor="middle" x="174" y="-734.88" font-family="sans" font-size="10.00">trim</text>
</g>
<!-- 3&#45;&gt;2 -->
<g id="edge6" class="edge">
<title>3&#45;&gt;2</title>
<path fill="none" stroke="grey" stroke-width="2" d="M163.18,-719.35C148.21,-693.2 123,-642.15 123,-595 123,-595 123,-595 123,-521 123,-482.47 117.83,-438.34 113.78,-409.63"/>
<polygon fill="grey" stroke="grey" stroke-width="2" points="117.26,-409.26 112.34,-399.87 110.33,-410.27 117.26,-409.26"/>
</g>
<!-- 7 -->
<g id="node8" class="node">
<title>7</title>
<path fill="none" stroke="#68d856" stroke-width="2" d="M282.75,-684C282.75,-684 241.25,-684 241.25,-684 235.25,-684 229.25,-678 229.25,-672 229.25,-672 229.25,-660 229.25,-660 229.25,-654 235.25,-648 241.25,-648 241.25,-648 282.75,-648 282.75,-648 288.75,-648 294.75,-654 294.75,-660 294.75,-660 294.75,-672 294.75,-672 294.75,-678 288.75,-684 282.75,-684"/>
<text xml:space="preserve" text-anchor="middle" x="262" y="-662.88" font-family="sans" font-size="10.00">align_bwa</text>
</g>
<!-- 3&#45;&gt;7 -->
<g id="edge11" class="edge">
<title>3&#45;&gt;7</title>
<path fill="none" stroke="grey" stroke-width="2" d="M196.21,-719.34C206.24,-711.36 218.29,-701.77 229.33,-692.99"/>
<polygon fill="grey" stroke="grey" stroke-width="2" points="231.48,-695.75 237.13,-686.79 227.12,-690.27 231.48,-695.75"/>
</g>
<!-- 3&#45;&gt;16 -->
<g id="edge24" class="edge">
<title>3&#45;&gt;16</title>
<path fill="none" stroke="grey" stroke-width="2" d="M174,-719.07C174,-692.13 174,-639.62 174,-595 174,-595 174,-595 174,-449 174,-410.64 172.89,-366.48 172.02,-337.72"/>
<polygon fill="grey" stroke="grey" stroke-width="2" points="175.53,-337.84 171.72,-327.96 168.53,-338.06 175.53,-337.84"/>
</g>
<!-- 4 -->
<g id="node5" class="node">
<title>4</title>
<path fill="none" stroke="#d87556" stroke-width="2" d="M292.38,-396C292.38,-396 251.62,-396 251.62,-396 245.62,-396 239.62,-390 239.62,-384 239.62,-384 239.62,-372 239.62,-372 239.62,-366 245.62,-360 251.62,-360 251.62,-360 292.38,-360 292.38,-360 298.38,-360 304.38,-366 304.38,-372 304.38,-372 304.38,-384 304.38,-384 304.38,-390 298.38,-396 292.38,-396"/>
<text xml:space="preserve" text-anchor="middle" x="272" y="-374.88" font-family="sans" font-size="10.00">mosdepth</text>
</g>
<!-- 4&#45;&gt;0 -->
<g id="edge2" class="edge">
<title>4&#45;&gt;0</title>
<path fill="none" stroke="grey" stroke-width="2" d="M262.24,-359.22C248.74,-332.9 226,-281.65 226,-235 226,-235 226,-235 226,-161 226,-119.59 205.41,-75.7 189.43,-47.86"/>
<polygon fill="grey" stroke="grey" stroke-width="2" points="192.61,-46.37 184.48,-39.57 186.6,-49.95 192.61,-46.37"/>
</g>
<!-- 4&#45;&gt;16 -->
<g id="edge22" class="edge">
<title>4&#45;&gt;16</title>
<path fill="none" stroke="grey" stroke-width="2" d="M246.25,-359.15C234.38,-350.93 220.08,-341.02 207.16,-332.06"/>
<polygon fill="grey" stroke="grey" stroke-width="2" points="209.4,-329.36 199.19,-326.54 205.41,-335.11 209.4,-329.36"/>
</g>
<!-- 5 -->
<g id="node6" class="node">
<title>5</title>
<path fill="none" stroke="#5673d8" stroke-width="2" d="M351.62,-468C351.62,-468 306.38,-468 306.38,-468 300.38,-468 294.38,-462 294.38,-456 294.38,-456 294.38,-444 294.38,-444 294.38,-438 300.38,-432 306.38,-432 306.38,-432 351.62,-432 351.62,-432 357.62,-432 363.62,-438 363.62,-444 363.62,-444 363.62,-456 363.62,-456 363.62,-462 357.62,-468 351.62,-468"/>
<text xml:space="preserve" text-anchor="middle" x="329" y="-446.88" font-family="sans" font-size="10.00">apply_bqsr</text>
</g>
<!-- 5&#45;&gt;4 -->
<g id="edge7" class="edge">
<title>5&#45;&gt;4</title>
<path fill="none" stroke="grey" stroke-width="2" d="M314.62,-431.34C308.59,-423.93 301.43,-415.14 294.72,-406.9"/>
<polygon fill="grey" stroke="grey" stroke-width="2" points="297.52,-404.79 288.49,-399.25 292.09,-409.21 297.52,-404.79"/>
</g>
<!-- 13 -->
<g id="node14" class="node">
<title>13</title>
<path fill="none" stroke="#bed856" stroke-width="2" d="M407.5,-396C407.5,-396 334.5,-396 334.5,-396 328.5,-396 322.5,-390 322.5,-384 322.5,-384 322.5,-372 322.5,-372 322.5,-366 328.5,-360 334.5,-360 334.5,-360 407.5,-360 407.5,-360 413.5,-360 419.5,-366 419.5,-372 419.5,-372 419.5,-384 419.5,-384 419.5,-390 413.5,-396 407.5,-396"/>
<text xml:space="preserve" text-anchor="middle" x="371" y="-374.88" font-family="sans" font-size="10.00">haplotype_caller</text>
</g>
<!-- 5&#45;&gt;13 -->
<g id="edge18" class="edge">
<title>5&#45;&gt;13</title>
<path fill="none" stroke="grey" stroke-width="2" d="M339.6,-431.34C343.84,-424.26 348.85,-415.92 353.6,-408"/>
<polygon fill="grey" stroke="grey" stroke-width="2" points="356.56,-409.87 358.7,-399.5 350.56,-406.27 356.56,-409.87"/>
</g>
<!-- 6 -->
<g id="node7" class="node">
<title>6</title>
<path fill="none" stroke="#d8b456" stroke-width="2" d="M293.75,-612C293.75,-612 258.25,-612 258.25,-612 252.25,-612 246.25,-606 246.25,-600 246.25,-600 246.25,-588 246.25,-588 246.25,-582 252.25,-576 258.25,-576 258.25,-576 293.75,-576 293.75,-576 299.75,-576 305.75,-582 305.75,-588 305.75,-588 305.75,-600 305.75,-600 305.75,-606 299.75,-612 293.75,-612"/>
<text xml:space="preserve" text-anchor="middle" x="276" y="-590.88" font-family="sans" font-size="10.00">markdup</text>
</g>
<!-- 6&#45;&gt;5 -->
<g id="edge9" class="edge">
<title>6&#45;&gt;5</title>
<path fill="none" stroke="grey" stroke-width="2" d="M306.42,-579.48C322.21,-570.7 340.04,-557.58 349,-540 358.42,-521.52 352.96,-498.65 345.39,-480.72"/>
<polygon fill="grey" stroke="grey" stroke-width="2" points="348.55,-479.22 341.12,-471.68 342.22,-482.21 348.55,-479.22"/>
</g>
<!-- 8 -->
<g id="node9" class="node">
<title>8</title>
<path fill="none" stroke="#d89556" stroke-width="2" d="M328.38,-540C328.38,-540 251.62,-540 251.62,-540 245.62,-540 239.62,-534 239.62,-528 239.62,-528 239.62,-516 239.62,-516 239.62,-510 245.62,-504 251.62,-504 251.62,-504 328.38,-504 328.38,-504 334.38,-504 340.38,-510 340.38,-516 340.38,-516 340.38,-528 340.38,-528 340.38,-534 334.38,-540 328.38,-540"/>
<text xml:space="preserve" text-anchor="middle" x="290" y="-518.88" font-family="sans" font-size="10.00">base_recalibrator</text>
</g>
<!-- 6&#45;&gt;8 -->
<g id="edge12" class="edge">
<title>6&#45;&gt;8</title>
<path fill="none" stroke="grey" stroke-width="2" d="M279.53,-575.34C280.85,-568.75 282.38,-561.08 283.87,-553.67"/>
<polygon fill="grey" stroke="grey" stroke-width="2" points="287.3,-554.36 285.83,-543.87 280.43,-552.99 287.3,-554.36"/>
</g>
<!-- 6&#45;&gt;16 -->
<g id="edge23" class="edge">
<title>6&#45;&gt;16</title>
<path fill="none" stroke="grey" stroke-width="2" d="M257.39,-575.43C248.19,-565.79 237.66,-553.13 231,-540 193.81,-466.64 210.13,-439.22 188,-360 185.89,-352.46 183.42,-344.39 181.02,-336.87"/>
<polygon fill="grey" stroke="grey" stroke-width="2" points="184.37,-335.86 177.94,-327.44 177.72,-338.04 184.37,-335.86"/>
</g>
<!-- 7&#45;&gt;6 -->
<g id="edge10" class="edge">
<title>7&#45;&gt;6</title>
<path fill="none" stroke="grey" stroke-width="2" d="M265.53,-647.34C266.85,-640.75 268.38,-633.08 269.87,-625.67"/>
<polygon fill="grey" stroke="grey" stroke-width="2" points="273.3,-626.36 271.83,-615.87 266.43,-624.99 273.3,-626.36"/>
</g>
<!-- 8&#45;&gt;5 -->
<g id="edge8" class="edge">
<title>8&#45;&gt;5</title>
<path fill="none" stroke="grey" stroke-width="2" d="M299.84,-503.34C303.74,-496.34 308.32,-488.12 312.69,-480.28"/>
<polygon fill="grey" stroke="grey" stroke-width="2" points="315.74,-481.99 317.55,-471.55 309.63,-478.58 315.74,-481.99"/>
</g>
<!-- 9 -->
<g id="node10" class="node">
<title>9</title>
<path fill="none" stroke="#56d863" stroke-width="2" d="M329.62,-108C329.62,-108 266.38,-108 266.38,-108 260.38,-108 254.38,-102 254.38,-96 254.38,-96 254.38,-84 254.38,-84 254.38,-78 260.38,-72 266.38,-72 266.38,-72 329.62,-72 329.62,-72 335.62,-72 341.62,-78 341.62,-84 341.62,-84 341.62,-96 341.62,-96 341.62,-102 335.62,-108 329.62,-108"/>
<text xml:space="preserve" text-anchor="middle" x="298" y="-86.88" font-family="sans" font-size="10.00">merge_filtered</text>
</g>
<!-- 9&#45;&gt;0 -->
<g id="edge4" class="edge">
<title>9&#45;&gt;0</title>
<path fill="none" stroke="grey" stroke-width="2" d="M265.62,-71.15C248.62,-61.78 227.67,-50.23 209.8,-40.39"/>
<polygon fill="grey" stroke="grey" stroke-width="2" points="211.68,-37.43 201.23,-35.66 208.3,-43.56 211.68,-37.43"/>
</g>
<!-- 10 -->
<g id="node11" class="node">
<title>10</title>
<path fill="none" stroke="#56d8c1" stroke-width="2" d="M316.12,-180C316.12,-180 273.88,-180 273.88,-180 267.88,-180 261.88,-174 261.88,-168 261.88,-168 261.88,-156 261.88,-156 261.88,-150 267.88,-144 273.88,-144 273.88,-144 316.12,-144 316.12,-144 322.12,-144 328.12,-150 328.12,-156 328.12,-156 328.12,-168 328.12,-168 328.12,-174 322.12,-180 316.12,-180"/>
<text xml:space="preserve" text-anchor="middle" x="295" y="-158.88" font-family="sans" font-size="10.00">filter_snps</text>
</g>
<!-- 10&#45;&gt;9 -->
<g id="edge14" class="edge">
<title>10&#45;&gt;9</title>
<path fill="none" stroke="grey" stroke-width="2" d="M295.76,-143.34C296.04,-136.75 296.37,-129.08 296.69,-121.67"/>
<polygon fill="grey" stroke="grey" stroke-width="2" points="300.17,-122.07 297.1,-111.93 293.18,-121.77 300.17,-122.07"/>
</g>
<!-- 11 -->
<g id="node12" class="node">
<title>11</title>
<path fill="none" stroke="#56d8a2" stroke-width="2" d="M318.5,-252C318.5,-252 269.5,-252 269.5,-252 263.5,-252 257.5,-246 257.5,-240 257.5,-240 257.5,-228 257.5,-228 257.5,-222 263.5,-216 269.5,-216 269.5,-216 318.5,-216 318.5,-216 324.5,-216 330.5,-222 330.5,-228 330.5,-228 330.5,-240 330.5,-240 330.5,-246 324.5,-252 318.5,-252"/>
<text xml:space="preserve" text-anchor="middle" x="294" y="-230.88" font-family="sans" font-size="10.00">select_snps</text>
</g>
<!-- 11&#45;&gt;10 -->
<g id="edge15" class="edge">
<title>11&#45;&gt;10</title>
<path fill="none" stroke="grey" stroke-width="2" d="M294.25,-215.34C294.35,-208.75 294.46,-201.08 294.56,-193.67"/>
<polygon fill="grey" stroke="grey" stroke-width="2" points="298.06,-193.98 294.7,-183.93 291.06,-193.88 298.06,-193.98"/>
</g>
<!-- 12 -->
<g id="node13" class="node">
<title>12</title>
<path fill="none" stroke="#56d0d8" stroke-width="2" d="M405.62,-324C405.62,-324 336.38,-324 336.38,-324 330.38,-324 324.38,-318 324.38,-312 324.38,-312 324.38,-300 324.38,-300 324.38,-294 330.38,-288 336.38,-288 336.38,-288 405.62,-288 405.62,-288 411.62,-288 417.62,-294 417.62,-300 417.62,-300 417.62,-312 417.62,-312 417.62,-318 411.62,-324 405.62,-324"/>
<text xml:space="preserve" text-anchor="middle" x="371" y="-302.88" font-family="sans" font-size="10.00">genotype_gvcfs</text>
</g>
<!-- 12&#45;&gt;11 -->
<g id="edge16" class="edge">
<title>12&#45;&gt;11</title>
<path fill="none" stroke="grey" stroke-width="2" d="M351.57,-287.34C342.97,-279.52 332.68,-270.16 323.19,-261.53"/>
<polygon fill="grey" stroke="grey" stroke-width="2" points="325.69,-259.07 315.93,-254.94 320.98,-264.25 325.69,-259.07"/>
</g>
<!-- 15 -->
<g id="node16" class="node">
<title>15</title>
<path fill="none" stroke="#5692d8" stroke-width="2" d="M415.88,-252C415.88,-252 360.12,-252 360.12,-252 354.12,-252 348.12,-246 348.12,-240 348.12,-240 348.12,-228 348.12,-228 348.12,-222 354.12,-216 360.12,-216 360.12,-216 415.88,-216 415.88,-216 421.88,-216 427.88,-222 427.88,-228 427.88,-228 427.88,-240 427.88,-240 427.88,-246 421.88,-252 415.88,-252"/>
<text xml:space="preserve" text-anchor="middle" x="388" y="-230.88" font-family="sans" font-size="10.00">select_indels</text>
</g>
<!-- 12&#45;&gt;15 -->
<g id="edge20" class="edge">
<title>12&#45;&gt;15</title>
<path fill="none" stroke="grey" stroke-width="2" d="M375.29,-287.34C376.91,-280.67 378.8,-272.89 380.62,-265.39"/>
<polygon fill="grey" stroke="grey" stroke-width="2" points="383.98,-266.39 382.94,-255.84 377.18,-264.73 383.98,-266.39"/>
</g>
<!-- 13&#45;&gt;12 -->
<g id="edge17" class="edge">
<title>13&#45;&gt;12</title>
<path fill="none" stroke="grey" stroke-width="2" d="M371,-359.34C371,-352.75 371,-345.08 371,-337.67"/>
<polygon fill="grey" stroke="grey" stroke-width="2" points="374.5,-337.93 371,-327.93 367.5,-337.93 374.5,-337.93"/>
</g>
<!-- 14 -->
<g id="node15" class="node">
<title>14</title>
<path fill="none" stroke="#56b1d8" stroke-width="2" d="M410.5,-180C410.5,-180 361.5,-180 361.5,-180 355.5,-180 349.5,-174 349.5,-168 349.5,-168 349.5,-156 349.5,-156 349.5,-150 355.5,-144 361.5,-144 361.5,-144 410.5,-144 410.5,-144 416.5,-144 422.5,-150 422.5,-156 422.5,-156 422.5,-168 422.5,-168 422.5,-174 416.5,-180 410.5,-180"/>
<text xml:space="preserve" text-anchor="middle" x="386" y="-158.88" font-family="sans" font-size="10.00">filter_indels</text>
</g>
<!-- 14&#45;&gt;9 -->
<g id="edge13" class="edge">
<title>14&#45;&gt;9</title>
<path fill="none" stroke="grey" stroke-width="2" d="M363.79,-143.34C353.76,-135.36 341.71,-125.77 330.67,-116.99"/>
<polygon fill="grey" stroke="grey" stroke-width="2" points="332.88,-114.27 322.87,-110.79 328.52,-119.75 332.88,-114.27"/>
</g>
<!-- 15&#45;&gt;14 -->
<g id="edge19" class="edge">
<title>15&#45;&gt;14</title>
<path fill="none" stroke="grey" stroke-width="2" d="M387.5,-215.34C387.31,-208.75 387.09,-201.08 386.88,-193.67"/>
<polygon fill="grey" stroke="grey" stroke-width="2" points="390.38,-193.82 386.6,-183.93 383.39,-194.02 390.38,-193.82"/>
</g>
<!-- 16&#45;&gt;0 -->
<g id="edge5" class="edge">
<title>16&#45;&gt;0</title>
<path fill="none" stroke="grey" stroke-width="2" d="M171,-287.11C171,-239.56 171,-109.6 171,-49.83"/>
<polygon fill="grey" stroke="grey" stroke-width="2" points="174.5,-49.91 171,-39.91 167.5,-49.91 174.5,-49.91"/>
</g>
</g>
</svg>
